<?xml version="1.0" standalone="no"?>
<!DOCTYPE svg PUBLIC "-//W3C//DTD SVG 20010904//EN"
 "http://www.w3.org/TR/2001/REC-SVG-20010904/DTD/svg10.dtd">
<svg version="1.0" xmlns="http://www.w3.org/2000/svg"
 width="320.000000pt" height="320.000000pt" viewBox="0 0 320.000000 320.000000"
 preserveAspectRatio="xMidYMid meet">
<metadata>
Created by potrace 1.11, written by Peter Selinger 2001-2013
</metadata>
<g transform="translate(0.000000,320.000000) scale(0.100000,-0.100000)"
fill="#000000" stroke="none">
<path d="M1710 2872 c-79 -26 -101 -76 -57 -136 12 -17 30 -19 178 -21 136 -1
177 -6 239 -24 285 -85 534 -291 645 -535 36 -80 51 -91 111 -84 19 2 34 13
46 34 18 30 18 33 -2 95 -84 274 -432 567 -779 656 -131 33 -304 40 -381 15z"/>
<path d="M1813 2438 c-45 -12 -76 -54 -69 -93 10 -49 39 -65 115 -65 98 0 215
-35 279 -83 46 -35 124 -121 139 -154 10 -21 27 -39 38 -42 11 -2 23 -7 26
-13 3 -5 23 -11 44 -15 45 -7 65 12 65 63 0 44 -21 89 -73 160 -103 140 -293
243 -462 249 -38 1 -84 -2 -102 -7z"/>
<path d="M943 2065 c-23 -5 -45 -13 -49 -18 -4 -4 -20 -7 -36 -7 -15 0 -36 -4
-46 -9 -9 -5 -30 -14 -45 -20 -23 -9 -27 -16 -25 -44 1 -18 -1 -38 -5 -44 -4
-6 -3 -22 2 -35 5 -13 17 -49 26 -80 9 -32 21 -58 26 -58 5 0 9 -7 9 -16 0
-16 78 -114 91 -114 4 0 19 -11 32 -24 13 -12 30 -26 38 -30 12 -5 12 -7 0
-12 -30 -14 -103 -90 -122 -127 -11 -21 -23 -66 -27 -100 -7 -57 -12 -66 -58
-112 -55 -56 -84 -125 -84 -204 0 -46 28 -121 56 -152 8 -8 28 -62 45 -120 38
-125 57 -164 101 -205 34 -33 193 -132 263 -166 22 -10 62 -34 88 -53 108 -77
243 -74 356 9 27 20 77 51 112 69 115 60 219 128 243 160 36 48 51 83 81 187
15 52 33 102 40 110 89 106 76 271 -29 373 -36 35 -42 48 -53 108 -14 86 -51
151 -109 192 -24 17 -44 35 -44 39 0 5 11 13 25 18 14 5 25 14 25 19 0 6 14
17 30 26 17 9 30 22 30 29 0 8 11 21 25 30 14 9 25 25 25 35 0 10 7 24 15 31
8 7 15 21 15 32 0 10 7 30 16 43 10 15 17 51 19 92 2 75 -11 103 -51 103 -13
0 -25 4 -28 9 -3 5 -20 11 -38 14 -18 3 -51 10 -73 17 -57 16 -130 20 -189 9
-28 -6 -58 -11 -66 -12 -26 -5 -126 -55 -139 -70 -6 -8 -24 -38 -40 -67 l-29
-53 -22 44 c-26 52 -78 109 -99 109 -8 0 -22 7 -31 15 -9 8 -30 17 -47 19 -16
1 -35 6 -41 10 -19 11 -165 12 -209 1z m111 -42 c13 -4 17 -2 12 5 -10 17 15
14 38 -3 15 -11 22 -12 27 -3 5 8 14 7 32 -5 15 -10 28 -12 34 -6 6 6 18 0 32
-15 13 -14 29 -22 36 -20 17 7 60 -46 81 -101 21 -57 11 -109 -27 -137 l-26
-20 -64 45 c-60 42 -179 107 -196 107 -4 0 26 -20 65 -45 107 -66 162 -113
162 -140 0 -53 -107 -115 -198 -115 -26 0 -33 3 -28 15 4 11 -2 15 -23 15 -37
0 -62 10 -56 21 3 5 -11 15 -32 24 -26 11 -34 18 -25 24 10 6 3 14 -24 30 -26
16 -34 25 -25 30 9 6 5 14 -15 30 -20 16 -25 24 -16 30 9 5 7 12 -8 26 -24 22
-26 35 -3 35 13 0 10 7 -12 30 -26 27 -26 35 -1 31 8 -2 5 17 -9 52 -6 14 -2
17 29 17 23 0 35 4 34 13 -2 8 10 12 40 11 29 0 42 3 42 13 0 16 -3 15 37 4
27 -8 31 -7 26 6 -7 17 -6 17 61 -4z m670 5 c-5 -8 -2 -9 10 -5 10 4 29 10 44
14 20 5 24 3 19 -10 -5 -13 -1 -14 26 -6 40 11 37 12 37 -4 0 -10 13 -13 43
-13 29 1 41 -3 40 -11 -2 -9 10 -13 33 -13 31 0 35 -3 29 -17 -16 -39 -18 -56
-7 -49 20 12 13 -17 -10 -41 -18 -20 -19 -23 -5 -23 23 0 21 -9 -5 -37 -14
-15 -17 -23 -8 -23 8 0 3 -11 -14 -29 -20 -20 -24 -30 -14 -33 8 -3 -2 -14
-25 -28 -28 -16 -35 -25 -25 -31 9 -6 2 -13 -23 -23 -20 -8 -39 -22 -42 -31
-4 -9 -19 -15 -41 -15 -27 0 -34 -3 -30 -15 15 -39 -151 -1 -198 45 -44 44
-38 71 27 122 30 24 83 60 117 81 34 20 58 37 55 37 -17 0 -136 -66 -196 -107
l-64 -45 -26 20 c-38 28 -48 80 -27 137 21 55 64 108 81 101 7 -2 23 6 36 20
15 16 25 20 30 13 4 -8 15 -6 34 7 19 13 29 14 34 6 5 -9 12 -8 27 3 23 17 48
20 38 3z m-218 -489 c55 -28 88 -77 75 -113 -20 -54 -150 -88 -256 -66 -63 13
-125 60 -125 96 0 24 70 88 111 102 53 18 140 9 195 -19z m-346 -23 c0 -18
-144 -155 -211 -200 -86 -57 -104 -46 -78 49 28 103 113 165 226 165 47 0 63
-4 63 -14z m634 -20 c58 -34 98 -100 104 -172 3 -31 0 -54 -5 -54 -45 0 -303
225 -288 250 14 22 137 7 189 -24z m-98 -175 c85 -39 154 -161 138 -248 -26
-152 -190 -198 -313 -87 -146 131 -93 354 84 354 28 0 68 -9 91 -19z m-436 -6
c49 -25 83 -80 88 -141 17 -204 -225 -344 -352 -203 -89 97 -42 268 93 339 44
23 130 26 171 5z m707 -121 c54 -41 76 -95 71 -179 -5 -112 -64 -182 -102
-122 -56 87 -67 327 -14 327 6 0 26 -12 45 -26z m-1097 -3 c27 -52 -3 -260
-45 -309 l-23 -27 -26 24 c-14 13 -33 46 -42 74 -27 82 -5 170 59 229 34 33
62 36 77 9z m629 -267 c190 -95 117 -354 -101 -355 -82 -1 -143 31 -181 93
-106 171 93 356 282 262z m410 -63 c44 -44 51 -153 15 -224 -36 -70 -110 -128
-185 -142 -36 -7 -88 8 -101 28 -14 21 -9 101 9 151 32 89 159 205 226 206 9
0 26 -9 36 -19z m-944 -25 c19 -8 57 -36 84 -61 74 -69 114 -170 91 -231 -15
-37 -26 -44 -80 -44 -130 0 -254 164 -220 291 16 59 57 73 125 45z m568 -352
c59 -20 72 -35 57 -66 -27 -51 -130 -108 -196 -108 -124 0 -258 111 -181 151
74 40 235 52 320 23z"/>
</g>
</svg>
